<?xml version="1.0" encoding="UTF-8"?>
<svg id="ilustracion" xmlns="http://www.w3.org/2000/svg" viewBox="0 0 610.37 482.9">
  <defs>
    <style>
      .cls-1, .cls-2, .cls-3 {
        fill: #19dad9;
      }

      .cls-1, .cls-4, .cls-5, .cls-3 {
        stroke: #3b8fd8;
        stroke-miterlimit: 10;
      }

      .cls-6, .cls-3 {
        opacity: .4;
      }

      .cls-7, .cls-4 {
        fill: #5f1bc0;
      }

      .cls-8 {
        fill: #8bf15d;
      }

      .cls-5 {
        fill: none;
      }
    </style>
  </defs>
  <path class="cls-4" d="M269.72,138.07s5.74-4.45,8.65-2.73c2.91,1.71,7.53,7.67,13.67,2.73,6.14-4.93,13.68-2.73,13.68-2.73,0,0-8.19-2.67-7.16,9.93,1.04,12.6-3.4,17.91,4.76,25.51s11.04,2.44,11.04,2.44l-7.2,38.49h-44.64l-5.76-35.72s5.85.15,13.72-5.21c7.88-5.35,3.79-22.63,3.79-22.63l-4.56-10.08Z"/>
  <path class="cls-8" d="M248.57,263.63l47.55-3.64,7.2-30.48-4.76,34.32s17.96,8.16,25.88,3.84c4.95-2.7,2.21-21.72-.54-35.6-1.81-9.16-8.11-16.79-16.74-20.36h0s-44.64,0-44.64,0c0,0-6.96,4.84-9.6,14.2-2.16,7.67-5.41,28.21-6.51,35.4-.2,1.29.86,2.43,2.16,2.33Z"/>
  <path class="cls-1" d="M410.12,346.15l17.78-1.89c8.42-.9,15.86,5.46,16.28,13.92.39,7.7,1.3,16.21,3.38,20.37,4.32,8.64,12.96,19.44,12.24,31.68-.72,12.24,1.44,28.56-6.48,38.16-7.92,9.6-21.6,0-21.6,0l-10.08-35.28s1.2,0-8.64-19.44c-9.84-19.44-12.1-20.47-12.1-20.47l9.22-27.05Z"/>
  <path class="cls-1" d="M247.47,398.42s10.01-17.71,13.61-14.11c3.6,3.6,11.04,8.77,7.68,14.11-3.36,5.33-6.24,16.85-6.24,16.85,0,0,4.32,10.08.72,15.84-3.6,5.76-15.77,4.32-15.77,4.32l-6.55-10.08,6.55-15.64v-11.29Z"/>
  <g>
    <g class="cls-6">
      <ellipse class="cls-2" cx="286.04" cy="111.79" rx="17.28" ry="26.28"/>
      <ellipse class="cls-5" cx="286.04" cy="111.79" rx="17.28" ry="26.28"/>
    </g>
    <g>
      <path class="cls-7" d="M270.73,95.47l9.27-8.79c.79-.75,1.84-1.17,2.94-1.17h13.34c1.4,0,2.71.69,3.51,1.84h0c1.96,2.83,6.26,2.3,7.49-.91.7-1.82,1.6-3.84,2.76-5.97,3.55-6.5,16.31-2.33,20.77-.63.98.38,1.79,1.09,2.28,2.03l8.48,16.39c.81,1.57,2.51,2.48,4.27,2.28l3.7-.42c1.12-.13,2.14-.69,2.84-1.57,3.17-3.98,12.58-15.18,16.93-13.99,5.28,1.44,4.8-4.8,15.12,4.32,7.1,6.27,7.16,13.91,6.5,18.07-.39,2.46,1.37,4.81,3.85,4.94,1.58.08,3.36-.44,5.01-2.36,3.49-4.07-2.25,6.25-4.6,10.38-.59,1.03-1.57,1.77-2.73,2.04l-8.22,1.93c-1.54.36-3.16-.15-4.2-1.35-1.97-2.27-4.54-6.57-3.3-12.77,1.92-9.6-1.44-11.76-6.72-11.76s-25.66,33.67-31.68,32.4c-4.52-.95-11.63,2.58-18.07-4.84-.11-.13-.22-.27-.32-.41-1.16-1.69-8.99-13.06-9.46-11.79-6.96,18.72-6.24,16.8-9.84,18.48-3.6,1.68-8.88,5.52-12.24,4.8-3.36-.72-6.48-3.12-8.16-6.48s2.4-13.44,0-16.08c-2.4-2.64-2.4-1.44-6.72-5.04-4.32-3.6-2.83-13.56-2.83-13.56"/>
      <path class="cls-5" d="M270.73,95.47l9.27-8.79c.79-.75,1.84-1.17,2.94-1.17h13.34c1.4,0,2.71.69,3.51,1.84h0c1.96,2.83,6.26,2.3,7.49-.91.7-1.82,1.6-3.84,2.76-5.97,3.55-6.5,16.31-2.33,20.77-.63.98.38,1.79,1.09,2.28,2.03l8.48,16.39c.81,1.57,2.51,2.48,4.27,2.28l3.7-.42c1.12-.13,2.14-.69,2.84-1.57,3.17-3.98,12.58-15.18,16.93-13.99,5.28,1.44,4.8-4.8,15.12,4.32,7.1,6.27,7.16,13.91,6.5,18.07-.39,2.46,1.37,4.81,3.85,4.94,1.58.08,3.36-.44,5.01-2.36,3.49-4.07-2.25,6.25-4.6,10.38-.59,1.03-1.57,1.77-2.73,2.04l-8.22,1.93c-1.54.36-3.16-.15-4.2-1.35-1.97-2.27-4.54-6.57-3.3-12.77,1.92-9.6-1.44-11.76-6.72-11.76s-25.66,33.67-31.68,32.4c-4.52-.95-11.63,2.58-18.07-4.84-.11-.13-.22-.27-.32-.41-1.16-1.69-8.99-13.06-9.46-11.79-6.96,18.72-6.24,16.8-9.84,18.48-3.6,1.68-8.88,5.52-12.24,4.8-3.36-.72-6.48-3.12-8.16-6.48s2.4-13.44,0-16.08c-2.4-2.64-2.4-1.44-6.72-5.04-4.32-3.6-2.83-13.56-2.83-13.56"/>
    </g>
  </g>
  <path class="cls-3" d="M269.72,138.07s6.72,13.44,3.84,23.04c-2.88,9.6-16.8,14.88-16.8,14.88l-3.84-17.76-12.96,31.68,21.6,7.2v9.12s-37.92-7.68-43.2-11.04,26.4-57.12,26.4-57.12c7.68-6.15,24.96,0,24.96,0"/>
  <path class="cls-3" d="M305.72,135.34c8.28-2.31,22.68,2.73,22.68,2.73,0,0,49.32-3.6,46.8,4.68-2.52,8.28-18,51.48-16.92,56.16,1.08,4.68-1.44,11.52-1.44,11.52,0,0-10.08,2.88-14.4,0-4.32-2.88-1.79-11.88-1.79-11.88,0,0,2.51-1.44,7.19-2.16s9.36-42.12,9.36-42.12c0,0-33.12-2.16-36.36,2.16-3.24,4.32-6.48,16.79-6.48,16.79,0,0-11.84-9.78-14.76-15.35-3.37-6.43,2.21-22.78,6.12-22.53Z"/>
  <path class="cls-3" d="M252.92,265.27c3.36,0,43.2-5.28,43.2-5.28l10.56,37.44s-4.8-4.8,11.04,1.92c15.84,6.72,67.2,48.48,71.52,49.44s13.92,5.28,13.92,5.28v20.16l-100.32-45.6s13.05,0-4.28-.48-24.29-8.16-24.29-8.16l-21.36-54.72Z"/>
  <path class="cls-3" d="M298.56,263.83l22.04,7.68-51.84,55.68,5.52,12.48-9.36,38.4v12.48l-3.84-6.24-8.16,6.24s6.24-3.36,2.88-16.32c-3.36-12.96-7.68-33.6-7.68-33.6l4.8-4.32s-7.68-13.92-4.8-19.2c2.88-5.28,12.48-24.96,12.48-24.96l37.96-28.32Z"/>
</svg>