<?xml version="1.0" encoding="UTF-8"?>
<svg id="ilustracion" xmlns="http://www.w3.org/2000/svg" viewBox="0 0 610.37 482.9">
  <defs>
    <style>
      .cls-1, .cls-2, .cls-3 {
        stroke: #3b8fd8;
        stroke-miterlimit: 10;
      }

      .cls-1, .cls-3 {
        fill: #19dad9;
      }

      .cls-2 {
        fill: #5f1bc0;
      }

      .cls-4 {
        fill: #abf23e;
      }

      .cls-3 {
        opacity: .4;
      }
    </style>
  </defs>
  <path class="cls-2" d="M256.26,158.95s-5.28-4.18-13.92,5.42-10.56,41.28-6.72,49.92c3.84,8.64,11.56,17.76,9.62,21.6s13.42,15.82,11.02,21.35,24,2.65,21.84-3.59,5.04-.46,6.48-10.08,8.64-44.64,2.4-47.04c-6.24-2.4-20.64-24.96-20.64-24.96l-10.08-12.62Z"/>
  <path class="cls-2" d="M299.94,138.22s-6.24-9.36-20.16-8.4c-13.92.96-23.52,22.08-23.52,22.08,0,0,.96,25.44,10.08,30.24s22.08,6.02,22.08,6.02l-4.32-33.38,15.84-16.56Z"/>
  <path class="cls-3" d="M208.06,154.81v6.48l12.24,16.56-2.88,15.12s6.48,5.04,5.76,9.36,6.48,52.56,10.8,54.72,28.8-11.52,31.68-12.24c1.99-.5,17.08-8.23,26.19-12.95,4.02-2.08,5.97-6.74,4.64-11.07h0c-1.77-5.76-8.44-8.37-13.65-5.34l-34.45,20-18-37.44s4.32-23.76,3.6-25.92-25.92-17.28-25.92-17.28Z"/>
  <path class="cls-3" d="M323.94,187.18l7.2-9.36,25.92-20.16,37.44-51.12,2.88-32.4h3.6v11.52-19.44h4.32l3.6-5.04,4.32,6.48s-4.32,25.92-4.32,28.08,13.68-11.52,11.52-8.64-9.36,16.56-9.36,16.56l-9.36,6.48-22.32,44.64s-25.92,23.76-28.08,32.4-1.44,15.12-1.44,15.12c0,0-18.72-5.76-21.6-7.92s-4.32-7.2-4.32-7.2Z"/>
  <path class="cls-3" d="M295.86,138.22c-7.92,7.92-12.24,23.76-12.24,23.76v10.08s.72-6.48-4.32-4.32-4.32,4.32-4.32,4.32c0,0,3.6,11.52,7.2,9.36s7.48,10.08,7.48,10.08l6.2,14.52s2.88,4.2,11.52,4.2,10.8-7.92,10.8-7.92v-7.2l-10.8-13.68s7.2-2.88,10.8-7.2c3.6-4.32-13.68-28.8-13.68-28.8l-8.64-7.2Z"/>
  <path class="cls-4" d="M279.78,210.22l12.48-4.2s2.88,6.84,12.96,7.32c10.08.48,13.44-6.72,15.84-11.04s-2.39-11.04-2.39-11.04l5.27-4.08,4.32,7.2,21.6,7.92,20.16,67.2s-16.8,12.96-35.52,11.04c-18.72-1.92-26.4.19-26.4.19,0,0,9.6-18.45,7.2-23.48s-29.28-23.29-29.28-23.29c0,0,13.42-2.86,10.79-9.1-2.63-6.24-17.03-14.64-17.03-14.64Z"/>
  <path class="cls-1" d="M308.1,280.73s-9.62,19.49-11.29,25.97c-1.67,6.48,0,18.72,0,18.72l45.13,5.76,6.48-17.28v17.28h31.68l-10.08-61.68s-14.19,9.79-31.94,11.23c-17.74,1.44-29.98,0-29.98,0Z"/>
  <path class="cls-3" d="M348.42,331.18v33.12s2.37,3.6-10.34,6.48-67.42,11.52-67.42,11.52l-4.32,18.72,82.25-5.76s19.5,2.88,23.7,1.44c4.2-1.44,7.8-24.48,7.8-24.48v-41.04h-31.68Z"/>
  <path class="cls-3" d="M338.08,330.69s-16.74,43.27-21.87,44.14c-5.13.87-26.83,8.37-30.19,0-3.36-8.37-43.68-39.09-43.68-39.09l12-10.56s37.42,28.61,42.47,26.79,4.18-26.01,4.18-26.01l37.1,4.73Z"/>
  <path class="cls-2" d="M251.94,325.18c-3.36-8.16-12.48-16.8-12.48-16.8,0,0-45.6,39.84-41.28,40.32s-3.84,5.76,6.24,5.76,37.92-14.4,37.92-14.4l9.6-14.88Z"/>
  <path class="cls-2" d="M269.81,383.39c-6.19-6.29-17.9-10.85-17.9-10.85,0,0-27.18,54.11-23,52.92s-1.38,6.78,7.95,2.98c9.33-3.81,29.68-27.65,29.68-27.65l3.27-17.4Z"/>
  <circle class="cls-2" cx="344.99" cy="86.27" r="35.11"/>
</svg>