<?xml version="1.0" encoding="UTF-8"?>
<svg id="ilustracion" xmlns="http://www.w3.org/2000/svg" viewBox="0 0 610.37 482.9">
  <defs>
    <style>
      .cls-1 {
        fill: #8bf15d;
      }

      .cls-2 {
        fill: #5f1bc0;
      }

      .cls-2, .cls-3 {
        stroke: #3b8fd8;
        stroke-miterlimit: 10;
      }

      .cls-3 {
        fill: #19dad9;
        opacity: .4;
      }
    </style>
  </defs>
  <path class="cls-2" d="M356.05,103.79s-12.87-7.4-18.03-4.86c-5.16,2.54-15.87,7.25-15.68,10.21.2,2.96-4.05,14.75-4.05,14.75l2.88,11.71s1.54-5.18-5.63-1.52c-7.17,3.66-4.12,15.29-4.12,15.29,0,0,3.56,7.42,7.29,6.44,3.74-.98,9.66-4.53,9.66-4.53l8.62,3.99.75-2.78s1.48-11.28-2.43-10.35c-3.91.93-1.5-22.81,7.37-28.77,10.22-6.86,13.36-9.59,13.36-9.59Z"/>
  <path class="cls-3" d="M354.77,104.89s16.07,18.09,14.81,31.07c-1.25,12.98-13.3,21.48-13.3,21.48l-2.66,12.68s8.57,11.73,3.42,15.06c-5.15,3.33.66,17.89-8.24,18.23s-26.23,5.8-24.16-4.06c2.07-9.86,1.13-29.93,1.13-29.93l12.5-17.47-3.2-9.27s-12.05,4.83-11.98-2.51c.07-7.34,6.45-9.68,6.45-9.68l5.16,6.97s2.32-21.58,8-24.07c5.67-2.49,12.08-8.5,12.08-8.5Z"/>
  <path class="cls-3" d="M286.76,136.22l29.86,45.26s4.97-2.64,8.02,17.87c3.05,20.5,12.17,48.17,3.97,46.45s-36.72-2.56-46.43,8.64c-9.71,11.2-79.04,26.08-79.04,26.08,0,0-13.35-6.48-18.25-11.19-4.9-4.71-67.78,14.46-68.3,9.94-.52-4.52-.3-12.57-7.5-13.35-7.19-.77-13.23,10.46-18.9,12.95-5.67,2.49-16.16,6.91-20.65,3.76-4.49-3.15-9.53-10.68-10.66-1.8-1.13,8.89,19.86,14.03,19.86,14.03l40.12-1.88,56.77-.59,35.9,11.22,14.16-4.38s66.28,24.21,77.81,14.86c11.53-9.35,23.42-13.42,25.38-26.28,1.96-12.86,10.99-52.16,10.99-52.16l-22.66-70.97-30.44-28.46Z"/>
  <path class="cls-3" d="M360.29,281.88s6.38-2.34,22.77,10.67c16.4,13.01,37.39,18.15,42.96,26.68s-5.47,26.07-5.47,26.07l-70.73,42.54s-1.04,4.93-8.26,7.83-36.61,10.71-46.08,7.98c-9.47-2.72-8.14-9.07-8.14-9.07,0,0,12.34,1.12,19.98-3.9,7.64-5.02,8.48-19.55,13.16-20.78,4.67-1.23,15.35,3.96,15.35,3.96l6.6,3.59,46.26-38.11s16.57-5.35.89-4.23c-15.69,1.12-69.28-20.43-69.28-20.43l39.99-32.8Z"/>
  <path class="cls-3" d="M491.18,115.59c-.21-.43-.27-.91-.16-1.38.31-1.38,1.72-3.98,7.74-4.84,8.34-1.19,7.2,2.25,19.88,4.91,10.18,2.14,21.94.34,26.18-.45.97-.18,1.93.33,2.33,1.22h0c.58,1.28-.2,2.76-1.59,2.99-4.79.8-14.43,2.3-16.87,1.79-3.29-.69,11.18,2.84,15.33,1.75,4.15-1.09,6.06,6.18,2.35,5.15-3.71-1.02-28.08-1.73-31.08-3.83-2.99-2.1.25,3.49,5.02,6.45,4.77,2.96,9.33,9.31,4.35,7.29-4.97-2.02-5.89-4.67-13.67-7.29s-12.61-.69-14.46-3.53c-1.57-2.41-4.5-8.45-5.35-10.23Z"/>
  <path class="cls-3" d="M248.39,80.71s-1.15-5.02-6.2-9.03-7.66,3.17-14.81-1.27c-7.16-4.45-14.01-12.14-15.71-11.02s6.42,7.97,6.33,10.16-17.54-7.58-17.19-5.74c.35,1.84-1.1,5.26.65,7.47,1.74,2.21,26.26,8.04,28.95,7.5s-8.3,4.51-12.55,5.46c-4.25.95,1.62,6.22,3.15,5.08s16.68-4.96,18.95-5.22,8.43-3.38,8.43-3.38Z"/>
  <path class="cls-1" d="M239.96,84.09l8.43-3.38s50.93,54.71,57.21,57.5c6.28,2.79,12.25,18.76,17.34,17.86,5.09-.89,15.14-3.2,14.55-.38-.59,2.82-14.52,44.64-9.18,43.74,5.34-.9,8.54,5.19,13.7,1.35,5.15-3.85-2.44,6.31,5.15-3.85,7.59-10.15,3.15-20.55,6.75-21.93l3.6-1.38s4.03-7.49,11.94-7.79,27.49-.11,37.7-4.35c10.21-4.23,81.27-46.02,81.27-46.02l6.44,7.41-55.94,43.8s-.87,1.81-8.33,4.64-44.46,22.53-47,22.98c-2.55.45,5.44,16.35,5.44,16.35,0,0,3.5,2.21-1.58,7.52s-14.47,12.66-12.44,17.01c2.03,4.35-13.03,43.37-13.03,43.37l-41.67,36.13-10.61-2.23,17.36-15.73c-4.37-.73,13.06-33.41,6.31-47.72-7.67-16.27-7.05-15.7-7.05-15.7,0,0-.89-26.22-7.25-44.68-6.36-18.47-79.09-104.52-79.09-104.52Z"/>
</svg>