<?xml version="1.0" encoding="UTF-8"?>
<svg id="ilustracion" xmlns="http://www.w3.org/2000/svg" viewBox="0 0 610.37 482.9">
  <defs>
    <style>
      .cls-1 {
        fill: #3b8fd8;
      }

      .cls-1, .cls-2, .cls-3, .cls-4 {
        stroke: #3b8fd8;
        stroke-miterlimit: 10;
      }

      .cls-2 {
        fill: #89c0ba;
      }

      .cls-3 {
        fill: #19dad9;
        opacity: .4;
      }

      .cls-4 {
        fill: none;
        stroke-width: 2px;
      }
    </style>
  </defs>
  <g>
    <path class="cls-3" d="M253.95,262.9s-41.11,5.92-48.87,5.27c-7.76-.66-69.08-3.03-69.08-3.03l-23.82-7.42-8.83,4.87-19.74,5.95-4.16,8.87,5.24,2.05,13.06,4.31,27.87-.15s6.35-6.38,14.5-7.99l8.15-1.62s52.75,13.68,54.3,12c1.54-1.67,19.18-3.99,36.24-4.35,17.06-.36,32.24.32,38.74,1.67s46.3-2.5,46.3-2.5l120.74-10.64s3.53-8.52-14.62-19.07c-18.15-10.55-43.43,1.74-43.43,1.74,0,0-26.61,11.38-31.57,8.35s-31.79-29.34-31.79-29.34c0,0-21.81-18.75-25.46-13.44-3.65,5.3-12.49,7.23-12.58,13.03-.09,5.8.3,15.46-2.7,13-3-2.46-9.69-8.63-9.69-8.63l-.67-8.67-5.87-1.7s-13.65,5.06-17.66,9.73c-4,4.67-13.77,15.81-13.77,15.81,2.77,7.37,10.29,10.29,19.17,11.92Z"/>
    <ellipse class="cls-2" cx="245.45" cy="252.16" rx="7.78" ry="5.7" transform="translate(-106 269.74) rotate(-48.64)"/>
    <ellipse class="cls-2" cx="258.04" cy="238.78" rx="7.85" ry="5.75" transform="translate(-91.7 274.65) rotate(-48.64)"/>
    <line class="cls-4" x1="263.23" y1="232.89" x2="266.88" y2="220.28"/>
    <line class="cls-4" x1="252.85" y1="244.67" x2="250.43" y2="246.01"/>
    <path class="cls-1" d="M234.78,250.98c-7.1-5.95-11.62-14.15-8.37-21.69,3.24-7.54,4.46-17.26,18.88-19.45,14.41-2.19,23.17,15.18,23.17,15.18,0,0-12.85-.32-20.41,8.78-7.56,9.1-13.26,17.17-13.26,17.17Z"/>
    <path class="cls-1" d="M265.65,265.76s-2.3-.93,6.4,3.6c8.7,4.52,11.67,16.04,11.67,16.04l116.72-7.32s-18.34-23.33-17.62-27.01c.71-3.68-4.45,6.84-18.35,8.47-13.9,1.63-31.17-16.15-29.78-16.55,3.92-1.15-11.27,10.68-18.44,8.6s-30.41-12.51-31.15-14.84l-.42,5.79s20.97,12.69,21.29,15.26.9,13.82-2.34,16.64c-2.6,2.25-8.6,5.74-15.51,3.62-6.91-2.13-20.71-17.63-20.71-17.63l-1.75,5.35Z"/>
  </g>
  <path class="cls-3" d="M391.03,200.21l52.35-15.95c.82-.25,1.67-.32,2.52-.22l26.33,3.2c1.82.22,3.45,1.25,4.43,2.8h0c1.99,3.15.73,7.33-2.67,8.85l-24.2,10.84c-.53.24-1.08.4-1.65.48l-14.51,2.03c-1.5.21-3.03-.14-4.28-1l-7.38-5.01c-1.76-1.19-4-1.39-5.94-.52l-53.23,23.94c-.86.39-1.81.57-2.75.53l-37.62-1.52-27.22,7.87-8.45-8.98,18.5-16.69c3.92-3.53,9.36-4.83,14.45-3.43l26.31,7.21,45-14.44Z"/>
</svg>