<?xml version="1.0" encoding="UTF-8"?>
<svg id="ilustracion" xmlns="http://www.w3.org/2000/svg" viewBox="0 0 610.37 482.9">
  <defs>
    <style>
      .cls-1 {
        fill: #3b8fd8;
      }

      .cls-1, .cls-2, .cls-3, .cls-4, .cls-5 {
        stroke: #3b8fd8;
        stroke-miterlimit: 10;
      }

      .cls-2 {
        fill: #020102;
      }

      .cls-3 {
        fill: #f9f7f6;
      }

      .cls-3, .cls-5 {
        opacity: .4;
      }

      .cls-6 {
        fill: #8bf15d;
      }

      .cls-4 {
        fill: #5f1bc0;
      }

      .cls-5 {
        fill: #19dad9;
      }
    </style>
  </defs>
  <path class="cls-3" d="M253.84,162.07l-10.14,10.14-5.07,24.33-5.07,5.07h-19.26s12.17,63.87,14.19,68.94c2.03,5.07,13.18,2.03,19.26-10.14,6.08-12.17,25.34-42.93,25.34-42.93l31.43,41.91-45.11,162.21,45.11,11.15s31.43-144.97,35.48-151.05c4.06-6.08,65.9-46.63,65.9-46.63l-12.17,40.55,47.65,5.07s0-72.99,7.1-72.99-9.12-33.45-18.25-33.45-71.98,34.47-71.98,34.47l-11.15-27.37,18.25,14.19,48.66-21.29-14.19-21.29s-17.23,15.21-24.33,11.15c-7.1-4.06-38.52-34.47-48.66-36.5-10.14-2.03-72.99,34.47-72.99,34.47Z"/>
  <polygon class="cls-4" points="264.66 197.22 273.44 175.59 318.05 138.42 354.54 207.36 303.18 251.96 264.66 197.22"/>
  <polygon class="cls-2" points="358.6 205.33 303.18 251.96 309.6 264.8 361.98 209.38 358.6 205.33"/>
  <path class="cls-2" d="M303.18,258.05s-52.72,40.55-51.36,46.63c1.35,6.08,10.14,8.79,10.14,8.79l41.23-48.66s-41.9,68.26-38.52,72.32c3.38,4.06,12.83,6.76,12.83,6.76,0,0,20.96-68.26,25.7-71.64,4.73-3.38,6.42-7.43,6.42-7.43l-6.42-6.76Z"/>
  <polygon class="cls-6" points="352.44 219.48 386.99 251.96 378.2 300.96 365.36 300.96 361.98 320.22 336.3 325.63 350.49 251.96 336.3 236.56 352.44 219.48"/>
  <path class="cls-5" d="M271.41,153.96l16.22-4.06v-20.28s3.21-1.52,3.72-4.06-6.08-5.58-6.08-5.58l-7.6-13.69s-9.63,4.06-10.14,7.6c-.51,3.55,3.89,40.04,3.89,40.04Z"/>
  <path class="cls-5" d="M217.35,201.1s-7.6-10.64-6.59-18.75,17.74-6.59,17.74-6.59c0,0,9.63,4.56,10.64,8.62,1.01,4.06-2.03,16.73-2.03,16.73h-19.77Z"/>
  <path class="cls-5" d="M406.92,159.03c2.03-5.58,7.1-10.64,7.1-10.64,0,0,7.1-4.06,11.15,3.04s6.08,8.11,2.53,11.15c-3.55,3.04-13.18,12.17-13.18,10.14s-7.6-13.69-7.6-13.69Z"/>
  <path class="cls-5" d="M403.88,277.14v8.62s43.09,14.19,50.69,15.21c7.6,1.01-2.53-11.91-2.53-11.91l-15.21-7.86-32.95-4.06Z"/>
  <path class="cls-5" d="M290.85,428.7s-1.52,11.15-3.04,10.64-62.35,1.55-60.83.02c1.52-1.54,1.01-5.59,14.19-7.62,13.18-2.03,23.49-3.04,23.49-3.04l2.87-6.08,23.32,6.08Z"/>
  <path class="cls-4" d="M244.5,147.23s-17.52-22.16-29.68-26.73c-12.17-4.56-27.37,2.03-27.37,2.03,0,0-6.08,2.31-10.64,10.53-4.56,8.22,0,32.55,0,32.55,0,0,5.58,6.66-2.03,7.39s-17.74-5.36-20.28-9.92c-2.53-4.56-2.53,8.9,5.07,12.56,7.6,3.66,22.81,11.77,27.88,4.68,5.07-7.1,2.53-35.76,14.7-33.09,12.17,2.67,10.14-2.97,18.75,0,8.62,2.97,26.87,12.89,26.87,12.89l-3.26-12.89Z"/>
  <path class="cls-4" d="M220.89,147.23c-14.7,12.31-17.23,37.14-20.53,33.09-3.3-4.06-4.31-20.2-4.31-20.2,0,0-1.52,16.14,4.31,5.5s-3.99-22.81,10.3-22.81"/>
  <polygon class="cls-4" points="280.69 103.24 279.43 109.5 267.49 121.02 270.62 147.23 259.92 147.23 255.36 106.32 280.69 103.24"/>
  <path class="cls-1" d="M291.38,144.84s4.03,1.52,6.05-3.04c2.03-4.56-1.47-43.09-6.05-47.14-4.59-4.06-18.36-4.56-23.89-3.04-5.54,1.52-24.89,8.62-28.14,17.23-3.25,8.62,8.41,51.27,8.41,51.27l20.64-4.13s-6.11-38.02-3.75-44.1,12.5-8.77,21.12-9.12c8.62-.36,5.6,42.07,5.6,42.07Z"/>
</svg>