<?xml version="1.0" encoding="UTF-8"?><svg id="Capa_1" xmlns="http://www.w3.org/2000/svg" xmlns:xlink="http://www.w3.org/1999/xlink" viewBox="0 0 83.06 87.26"><defs><style>.cls-1{fill:#aaf23d;}.cls-2{stroke:url(#Degradado_sin_nombre_14-2);}.cls-2,.cls-3,.cls-4,.cls-5{fill:none;stroke-linecap:round;stroke-linejoin:round;}.cls-2,.cls-4{stroke-width:8.04px;}.cls-3{stroke:url(#Degradado_sin_nombre_63);stroke-width:8.04px;}.cls-4{stroke:url(#Degradado_sin_nombre_14);}.cls-5{stroke:#aaf23d;stroke-width:6.42px;}</style><linearGradient id="Degradado_sin_nombre_63" x1="-628.71" y1="487.43" x2="-628.71" y2="524.81" gradientTransform="translate(188.85 857.9) rotate(39.32) scale(1 -1)" gradientUnits="userSpaceOnUse"><stop offset=".21" stop-color="#5f1bbf"/><stop offset=".98" stop-color="#1ad9d9"/></linearGradient><linearGradient id="Degradado_sin_nombre_14" x1="15.32" y1="38.53" x2="46.86" y2="38.53" gradientUnits="userSpaceOnUse"><stop offset=".09" stop-color="#5f1bbf"/><stop offset=".21" stop-color="#4c4ec6"/><stop offset=".51" stop-color="#1dcfd7"/><stop offset=".53" stop-color="#1ad9d9"/><stop offset=".57" stop-color="#23dace"/><stop offset=".64" stop-color="#3cdeb3"/><stop offset=".73" stop-color="#64e587"/><stop offset=".83" stop-color="#9cef4b"/><stop offset=".86" stop-color="#aaf23d"/></linearGradient><linearGradient id="Degradado_sin_nombre_14-2" x1="1002.98" y1="1011.59" x2="1002.98" y2="1069.38" gradientTransform="translate(1465.83 350) rotate(145.76)" xlink:href="#Degradado_sin_nombre_14"/></defs><path class="cls-3" d="M8.67,75.08c9.34,4.05,20.19-.23,24.24-9.56,1.03-2.36,1.52-4.82,1.53-7.25"/><path class="cls-4" d="M42.84,28.86c-9.79-2.8-19.99,2.87-22.78,12.65-.71,2.48-.87,4.98-.57,7.38"/><path class="cls-2" d="M53.37,82.72c3.25-9.64-1.93-20.1-11.58-23.35-2.44-.82-4.93-1.11-7.35-.91l8.67-28.93c-.2,2.41.07,4.91.88,7.35,3.21,9.66,13.64,14.88,23.3,11.67"/><circle class="cls-5" cx="50.92" cy="11.13" r="6.53"/><circle class="cls-1" cx="72.01" cy="78.02" r="7.51"/></svg>