<?xml version="1.0" encoding="UTF-8"?><svg id="Capa_1" xmlns="http://www.w3.org/2000/svg" xmlns:xlink="http://www.w3.org/1999/xlink" viewBox="0 0 93.39 108.32"><defs><style>.cls-1{stroke:url(#Degradado_sin_nombre_44-2);}.cls-1,.cls-2,.cls-3,.cls-4,.cls-5,.cls-6,.cls-7{fill:none;stroke-linecap:round;stroke-linejoin:round;}.cls-1,.cls-2,.cls-4,.cls-5,.cls-6{stroke-width:8.04px;}.cls-2{stroke:url(#Degradado_sin_nombre_63-2);}.cls-3{stroke:url(#Degradado_sin_nombre_18);stroke-width:6px;}.cls-4{stroke:url(#Degradado_sin_nombre_63);}.cls-5{stroke:url(#Degradado_sin_nombre_44);}.cls-6{stroke:url(#Degradado_sin_nombre_46);}.cls-7{stroke:#aaf23d;stroke-width:6.42px;}</style><linearGradient id="Degradado_sin_nombre_63" x1="33.97" y1="82.59" x2="10.87" y2="55.06" gradientUnits="userSpaceOnUse"><stop offset=".21" stop-color="#5f1bbf"/><stop offset=".98" stop-color="#1ad9d9"/></linearGradient><linearGradient id="Degradado_sin_nombre_63-2" x1="54.41" y1="68.65" x2="36.47" y2="99.71" xlink:href="#Degradado_sin_nombre_63"/><linearGradient id="Degradado_sin_nombre_44" x1="72.23" y1="37.17" x2="45.22" y2="37.17" gradientUnits="userSpaceOnUse"><stop offset="0" stop-color="#1ad9d9"/><stop offset=".12" stop-color="#21dad0"/><stop offset=".31" stop-color="#35ddba"/><stop offset=".54" stop-color="#56e397"/><stop offset=".81" stop-color="#84eb65"/><stop offset="1" stop-color="#aaf23d"/></linearGradient><linearGradient id="Degradado_sin_nombre_44-2" x1="29.99" y1="28.99" x2="57" y2="28.99" xlink:href="#Degradado_sin_nombre_44"/><linearGradient id="Degradado_sin_nombre_46" x1="45.85" y1="75.18" x2="45.85" y2="22.92" gradientUnits="userSpaceOnUse"><stop offset="0" stop-color="#5f1bbf"/><stop offset=".06" stop-color="#5b23c0"/><stop offset=".14" stop-color="#533ac3"/><stop offset=".25" stop-color="#4560c8"/><stop offset=".38" stop-color="#3294cf"/><stop offset=".52" stop-color="#1bd6d8"/><stop offset=".53" stop-color="#1ad9d9"/><stop offset="1" stop-color="#aaf23d"/></linearGradient><linearGradient id="Degradado_sin_nombre_18" x1="14.98" y1="15.45" x2="92.09" y2="15.45" gradientUnits="userSpaceOnUse"><stop offset="0" stop-color="#1ad9d9"/><stop offset="1" stop-color="#aaf23d"/></linearGradient></defs><path class="cls-4" d="M38.93,68.73c-1.72,8.47-9.98,13.94-18.45,12.22-8.47-1.72-13.94-9.98-12.22-18.45"/><path class="cls-2" d="M39.63,68.76c8.54-1.34,16.55,4.5,17.88,13.04s-4.5,16.55-13.04,17.88"/><path class="cls-5" d="M49.24,37.13c1.82-5.08,7.41-7.73,12.49-5.91s7.73,7.41,5.91,12.49"/><path class="cls-1" d="M52.98,29.04c-1.82,5.08-7.41,7.73-12.49,5.91s-7.73-7.41-5.91-12.49"/><line class="cls-6" x1="38.17" y1="71.16" x2="53.54" y2="26.94"/><circle class="cls-7" cx="57.84" cy="13.94" r="5.54"/><line class="cls-3" x1="17.98" y1="24.91" x2="89.09" y2="5.98"/></svg>