<?xml version="1.0" encoding="UTF-8"?><svg id="Capa_1" xmlns="http://www.w3.org/2000/svg" xmlns:xlink="http://www.w3.org/1999/xlink" viewBox="0 0 104.61 108.06"><defs><style>.cls-1{stroke:url(#Degradado_sin_nombre_44-3);stroke-width:8px;}.cls-1,.cls-2,.cls-3,.cls-4,.cls-5,.cls-6{fill:none;stroke-linecap:round;stroke-linejoin:round;}.cls-2{stroke:url(#Degradado_sin_nombre_78-2);}.cls-2,.cls-3,.cls-4,.cls-5{stroke-width:8.04px;}.cls-3{stroke:url(#Degradado_sin_nombre_44-2);}.cls-4{stroke:url(#Degradado_sin_nombre_44);}.cls-5{stroke:url(#Degradado_sin_nombre_78);}.cls-6{stroke:#aaf23d;stroke-width:6.42px;}</style><linearGradient id="Degradado_sin_nombre_78" x1="95.99" y1="60.49" x2="48.37" y2="60.49" gradientUnits="userSpaceOnUse"><stop offset="0" stop-color="#5f1bbf"/><stop offset=".13" stop-color="#465ec8"/><stop offset=".26" stop-color="#2e9fd1"/><stop offset=".36" stop-color="#1fc9d6"/><stop offset=".42" stop-color="#1ad9d9"/><stop offset=".88" stop-color="#aaf23d"/></linearGradient><linearGradient id="Degradado_sin_nombre_78-2" x1="6.62" y1="52.51" x2="56.41" y2="52.51" xlink:href="#Degradado_sin_nombre_78"/><linearGradient id="Degradado_sin_nombre_44" x1="541.16" y1="45.5" x2="576.44" y2="45.5" gradientTransform="translate(624.81) rotate(-180) scale(1 -1)" gradientUnits="userSpaceOnUse"><stop offset="0" stop-color="#1ad9d9"/><stop offset=".12" stop-color="#21dad0"/><stop offset=".31" stop-color="#35ddba"/><stop offset=".54" stop-color="#56e397"/><stop offset=".81" stop-color="#84eb65"/><stop offset="1" stop-color="#aaf23d"/></linearGradient><linearGradient id="Degradado_sin_nombre_44-2" x1="19.82" y1="45.5" x2="56.41" y2="45.5" gradientTransform="matrix(1,0,0,1,0,0)" xlink:href="#Degradado_sin_nombre_44"/><linearGradient id="Degradado_sin_nombre_44-3" x1="24.26" y1="101.84" x2="83.63" y2="101.84" gradientTransform="matrix(1,0,0,1,0,0)" xlink:href="#Degradado_sin_nombre_44"/></defs><path class="cls-5" d="M52.39,76.55c13.19-10.71,26.39-21.41,39.58-32.12"/><polyline class="cls-2" points="52.39 28.47 52.39 71.07 52.39 76.55 10.64 42.83"/><path class="cls-4" d="M52.39,51.25c0-6.35,6.1-11.5,13.62-11.5s13.62,5.15,13.62,11.5"/><circle class="cls-6" cx="51.96" cy="10.74" r="6.53"/><path class="cls-3" d="M23.84,51.25c0-6.35,6.39-11.5,14.28-11.5s14.28,5.15,14.28,11.5"/><line class="cls-1" x1="28.26" y1="101.84" x2="79.63" y2="101.84"/></svg>