<?xml version="1.0" encoding="UTF-8"?><svg id="Capa_1" xmlns="http://www.w3.org/2000/svg" xmlns:xlink="http://www.w3.org/1999/xlink" viewBox="0 0 74.22 95.58"><defs><style>.cls-1{fill:#aaf23d;}.cls-2{stroke:url(#Degradado_sin_nombre_79-2);}.cls-2,.cls-3,.cls-4,.cls-5,.cls-6{stroke-width:8.04px;}.cls-2,.cls-3,.cls-4,.cls-5,.cls-6,.cls-7{fill:none;stroke-linecap:round;stroke-linejoin:round;}.cls-3{stroke:url(#Degradado_sin_nombre_63-2);}.cls-4{stroke:url(#Degradado_sin_nombre_63);}.cls-5{stroke:url(#Degradado_sin_nombre_14);}.cls-6{stroke:url(#Degradado_sin_nombre_79);}.cls-7{stroke:#aaf23d;stroke-width:6.42px;}</style><linearGradient id="Degradado_sin_nombre_63" x1="41.06" y1="97.15" x2="41.06" y2="134.52" gradientTransform="translate(11.14 -44.87) rotate(2.73)" gradientUnits="userSpaceOnUse"><stop offset=".21" stop-color="#5f1bbf"/><stop offset=".98" stop-color="#1ad9d9"/></linearGradient><linearGradient id="Degradado_sin_nombre_63-2" x1="457.25" y1="1002.25" x2="431.25" y2="1002.25" gradientTransform="translate(795.25 -724.74) rotate(68.45)" xlink:href="#Degradado_sin_nombre_63"/><linearGradient id="Degradado_sin_nombre_79" x1="453.51" y1="1184.1" x2="453.51" y2="1148.12" gradientTransform="translate(656.94 1108.62) rotate(-51.17) scale(1 -1)" gradientUnits="userSpaceOnUse"><stop offset=".09" stop-color="#5f1bbf"/><stop offset=".21" stop-color="#4c4ec6"/><stop offset=".51" stop-color="#1dcfd7"/><stop offset=".53" stop-color="#1ad9d9"/><stop offset=".59" stop-color="#23dace"/><stop offset=".68" stop-color="#3cdeb3"/><stop offset=".81" stop-color="#64e587"/><stop offset=".97" stop-color="#9cef4b"/><stop offset="1" stop-color="#aaf23d"/></linearGradient><linearGradient id="Degradado_sin_nombre_14" x1="1717.72" y1="-105.22" x2="1717.72" y2="-131.6" gradientTransform="translate(1734.68 -349.93) rotate(163.11) scale(1 -1)" gradientUnits="userSpaceOnUse"><stop offset=".09" stop-color="#5f1bbf"/><stop offset=".21" stop-color="#4c4ec6"/><stop offset=".51" stop-color="#1dcfd7"/><stop offset=".53" stop-color="#1ad9d9"/><stop offset=".57" stop-color="#23dace"/><stop offset=".64" stop-color="#3cdeb3"/><stop offset=".73" stop-color="#64e587"/><stop offset=".83" stop-color="#9cef4b"/><stop offset=".86" stop-color="#aaf23d"/></linearGradient><linearGradient id="Degradado_sin_nombre_79-2" x1="43.14" y1="61.17" x2="43.14" y2="23.85" gradientTransform="matrix(1,0,0,1,0,0)" xlink:href="#Degradado_sin_nombre_79"/></defs><path class="cls-4" d="M40.64,57.83c9.65,3.24,14.84,13.69,11.6,23.33-.82,2.44-2.1,4.6-3.72,6.4"/><path class="cls-3" d="M41.03,58.55c-7.04,7.34-18.71,7.59-26.05.54-1.86-1.78-3.26-3.86-4.21-6.09"/><circle class="cls-7" cx="56.41" cy="11.54" r="6.53"/><path class="cls-6" d="M21.38,16.18c2.2,9.94,12.04,16.21,21.97,14,1.25-.28,2.45-.68,3.57-1.18"/><circle class="cls-1" cx="27.09" cy="14.1" r="7.51"/><path class="cls-5" d="M62.18,43.58c-.54-6.76-4.8-12.97-11.53-15.66"/><path class="cls-2" d="M40.43,57.14c-6.36-7.94-5.08-19.54,2.87-25.9,2.01-1.61,4.26-2.73,6.59-3.38"/></svg>