<?xml version="1.0" encoding="UTF-8"?><svg id="Capa_1" xmlns="http://www.w3.org/2000/svg" xmlns:xlink="http://www.w3.org/1999/xlink" viewBox="0 0 100.9 90.59"><defs><style>.cls-1{stroke:url(#Degradado_sin_nombre_14-2);}.cls-1,.cls-2,.cls-3,.cls-4,.cls-5,.cls-6{fill:none;stroke-linecap:round;stroke-linejoin:round;}.cls-1,.cls-5{stroke-width:8.04px;}.cls-2{stroke:url(#Degradado_sin_nombre_18-2);}.cls-2,.cls-3{stroke-width:7px;}.cls-3{stroke:url(#Degradado_sin_nombre_18);}.cls-4{stroke:url(#Degradado_sin_nombre_63);stroke-width:8.04px;}.cls-5{stroke:url(#Degradado_sin_nombre_14);}.cls-6{stroke:#aaf23d;stroke-width:6.42px;}</style><linearGradient id="Degradado_sin_nombre_63" x1="-491.58" y1="3.24" x2="-491.58" y2="40.62" gradientTransform="translate(403.48 377.86) rotate(36.48) scale(1 -1)" gradientUnits="userSpaceOnUse"><stop offset=".21" stop-color="#5f1bbf"/><stop offset=".98" stop-color="#1ad9d9"/></linearGradient><linearGradient id="Degradado_sin_nombre_14" x1="12.72" y1="38.02" x2="44.26" y2="38.02" gradientUnits="userSpaceOnUse"><stop offset=".09" stop-color="#5f1bbf"/><stop offset=".21" stop-color="#4c4ec6"/><stop offset=".51" stop-color="#1dcfd7"/><stop offset=".53" stop-color="#1ad9d9"/><stop offset=".57" stop-color="#23dace"/><stop offset=".64" stop-color="#3cdeb3"/><stop offset=".73" stop-color="#64e587"/><stop offset=".83" stop-color="#9cef4b"/><stop offset=".86" stop-color="#aaf23d"/></linearGradient><linearGradient id="Degradado_sin_nombre_14-2" x1="1167.49" y1="488.38" x2="1167.49" y2="546.17" gradientTransform="translate(1304.86 -175.61) rotate(145.76)" xlink:href="#Degradado_sin_nombre_14"/><linearGradient id="Degradado_sin_nombre_18" x1="1055.72" y1="-902.6" x2="1090.81" y2="-902.6" gradientTransform="translate(1108.55 1017.4) rotate(-97.28)" gradientUnits="userSpaceOnUse"><stop offset="0" stop-color="#1ad9d9"/><stop offset="1" stop-color="#aaf23d"/></linearGradient><linearGradient id="Degradado_sin_nombre_18-2" x1="938.01" y1="-695.72" x2="938.01" y2="-675.66" gradientTransform="translate(670.15 -920.94) rotate(84.02) scale(1 -1)" xlink:href="#Degradado_sin_nombre_18"/></defs><path class="cls-4" d="M7.16,75.76c9.52,3.59,20.15-1.22,23.74-10.75.91-2.41,1.28-4.89,1.17-7.31"/><path class="cls-5" d="M40.24,28.36c-9.79-2.8-19.99,2.87-22.78,12.65-.71,2.48-.87,4.98-.57,7.38"/><path class="cls-1" d="M50.76,82.22c3.25-9.64-1.93-20.1-11.58-23.35-2.44-.82-4.93-1.11-7.35-.91l8.67-28.93c-.2,2.41.07,4.91.88,7.35,3.21,9.66,13.64,14.88,23.3,11.67"/><circle class="cls-6" cx="48.31" cy="10.62" r="6.53"/><line class="cls-3" x1="79.03" y1="81.07" x2="75.47" y2="53.21"/><path class="cls-2" d="M79.03,81.07c1.69,4.21,6.46,6.26,10.67,4.57,1.07-.43,1.99-1.05,2.76-1.81"/></svg>