<?xml version="1.0" encoding="UTF-8"?><svg id="Capa_1" xmlns="http://www.w3.org/2000/svg" xmlns:xlink="http://www.w3.org/1999/xlink" viewBox="0 0 105.52 87.26"><defs><style>.cls-1{stroke:url(#Degradado_sin_nombre_79-2);}.cls-1,.cls-2,.cls-3,.cls-4,.cls-5,.cls-6,.cls-7,.cls-8{fill:none;stroke-linecap:round;stroke-linejoin:round;}.cls-1,.cls-2,.cls-3,.cls-4,.cls-6,.cls-7{stroke-width:8.04px;}.cls-2{stroke:url(#Degradado_sin_nombre_63-4);}.cls-3{stroke:url(#Degradado_sin_nombre_63-3);}.cls-4{stroke:url(#Degradado_sin_nombre_63-2);}.cls-5{stroke:url(#Degradado_sin_nombre_88);stroke-width:8px;}.cls-6{stroke:url(#Degradado_sin_nombre_63);}.cls-7{stroke:url(#Degradado_sin_nombre_79);}.cls-8{stroke:#aaf23d;stroke-width:6.42px;}</style><linearGradient id="Degradado_sin_nombre_88" x1="28.83" y1="43.34" x2="75.78" y2="43.34" gradientUnits="userSpaceOnUse"><stop offset="0" stop-color="#aaf23d"/><stop offset=".04" stop-color="#9cef4c"/><stop offset=".19" stop-color="#64e588"/><stop offset=".32" stop-color="#3cdeb4"/><stop offset=".42" stop-color="#23dace"/><stop offset=".48" stop-color="#1ad9d9"/><stop offset=".61" stop-color="#45e0aa"/><stop offset=".79" stop-color="#7be96f"/><stop offset=".93" stop-color="#9def4a"/><stop offset="1" stop-color="#aaf23d"/></linearGradient><linearGradient id="Degradado_sin_nombre_63" x1="29.38" y1="48.2" x2="29.38" y2="85.58" gradientUnits="userSpaceOnUse"><stop offset=".21" stop-color="#5f1bbf"/><stop offset=".98" stop-color="#1ad9d9"/></linearGradient><linearGradient id="Degradado_sin_nombre_63-2" x1="28.22" y1="65.08" x2="2.22" y2="65.08" xlink:href="#Degradado_sin_nombre_63"/><linearGradient id="Degradado_sin_nombre_63-3" x1="89.8" y1="31.72" x2="63.75" y2="9.86" xlink:href="#Degradado_sin_nombre_63"/><linearGradient id="Degradado_sin_nombre_63-4" x1="76.39" y1="21.79" x2="102.39" y2="21.79" xlink:href="#Degradado_sin_nombre_63"/><linearGradient id="Degradado_sin_nombre_79" x1="25.14" y1="55.88" x2="25.14" y2="18.56" gradientUnits="userSpaceOnUse"><stop offset=".09" stop-color="#5f1bbf"/><stop offset=".21" stop-color="#4c4ec6"/><stop offset=".51" stop-color="#1dcfd7"/><stop offset=".53" stop-color="#1ad9d9"/><stop offset=".59" stop-color="#23dace"/><stop offset=".68" stop-color="#3cdeb3"/><stop offset=".81" stop-color="#64e587"/><stop offset=".97" stop-color="#9cef4b"/><stop offset="1" stop-color="#aaf23d"/></linearGradient><linearGradient id="Degradado_sin_nombre_79-2" x1="78.84" y1="30.11" x2="78.84" y2="67.43" xlink:href="#Degradado_sin_nombre_79"/></defs><line class="cls-5" x1="32.83" y1="23.27" x2="71.78" y2="63.41"/><path class="cls-6" d="M22.68,52.23c9.79,2.78,15.47,12.97,12.7,22.76-.7,2.48-1.88,4.69-3.41,6.57"/><path class="cls-4" d="M22.52,52.02c4.24,9.25.19,20.19-9.06,24.43-2.34,1.07-4.79,1.62-7.21,1.68"/><path class="cls-3" d="M81.94,34.84c-9.79-2.78-15.47-12.97-12.7-22.76.7-2.48,1.88-4.69,3.41-6.57"/><path class="cls-2" d="M82.09,34.84c-4.24-9.25-.19-20.19,9.06-24.43,2.34-1.07,4.79-1.62,7.21-1.68"/><circle class="cls-8" cx="47.02" cy="12.49" r="6.53"/><circle class="cls-8" cx="58.83" cy="73.42" r="6.53"/><path class="cls-7" d="M22.43,51.86c-6.36-7.94-5.08-19.54,2.87-25.9,2.01-1.61,4.26-2.73,6.59-3.38"/><path class="cls-1" d="M81.55,34.13c6.36,7.94,5.08,19.54-2.87,25.9-2.01,1.61-4.26,2.73-6.59,3.38"/></svg>