<?xml version="1.0" encoding="UTF-8"?><svg id="Capa_1" xmlns="http://www.w3.org/2000/svg" xmlns:xlink="http://www.w3.org/1999/xlink" viewBox="0 0 119.69 87.26"><defs><style>.cls-1{stroke:url(#Degradado_sin_nombre_79-2);}.cls-1,.cls-2,.cls-3,.cls-4,.cls-5,.cls-6,.cls-7,.cls-8{stroke-width:8.04px;}.cls-1,.cls-2,.cls-3,.cls-4,.cls-5,.cls-6,.cls-7,.cls-8,.cls-9{fill:none;stroke-linecap:round;stroke-linejoin:round;}.cls-2{stroke:url(#Degradado_sin_nombre_79-3);}.cls-3{stroke:url(#Degradado_sin_nombre_79-4);}.cls-4{stroke:url(#Degradado_sin_nombre_63-4);}.cls-5{stroke:url(#Degradado_sin_nombre_63-3);}.cls-6{stroke:url(#Degradado_sin_nombre_63-2);}.cls-7{stroke:url(#Degradado_sin_nombre_63);}.cls-8{stroke:url(#Degradado_sin_nombre_79);}.cls-9{stroke:#aaf23d;stroke-width:6.42px;}</style><linearGradient id="Degradado_sin_nombre_63" x1="29.84" y1="47.2" x2="29.84" y2="84.58" gradientUnits="userSpaceOnUse"><stop offset=".21" stop-color="#5f1bbf"/><stop offset=".98" stop-color="#1ad9d9"/></linearGradient><linearGradient id="Degradado_sin_nombre_63-2" x1="28.68" y1="64.08" x2="2.68" y2="64.08" xlink:href="#Degradado_sin_nombre_63"/><linearGradient id="Degradado_sin_nombre_79" x1="25.6" y1="54.88" x2="25.6" y2="17.56" gradientUnits="userSpaceOnUse"><stop offset=".09" stop-color="#5f1bbf"/><stop offset=".21" stop-color="#4c4ec6"/><stop offset=".51" stop-color="#1dcfd7"/><stop offset=".53" stop-color="#1ad9d9"/><stop offset=".59" stop-color="#23dace"/><stop offset=".68" stop-color="#3cdeb3"/><stop offset=".81" stop-color="#64e587"/><stop offset=".97" stop-color="#9cef4b"/><stop offset="1" stop-color="#aaf23d"/></linearGradient><linearGradient id="Degradado_sin_nombre_79-2" x1="338.84" y1="-326.22" x2="338.84" y2="-363.54" gradientTransform="translate(60.75 520.65) rotate(-47.19)" xlink:href="#Degradado_sin_nombre_79"/><linearGradient id="Degradado_sin_nombre_63-3" x1="1195.84" y1="46.91" x2="1195.84" y2="84.28" gradientTransform="translate(1285.29) rotate(-180) scale(1 -1)" xlink:href="#Degradado_sin_nombre_63"/><linearGradient id="Degradado_sin_nombre_63-4" x1="1194.68" y1="63.79" x2="1168.68" y2="63.79" gradientTransform="translate(1285.29) rotate(-180) scale(1 -1)" xlink:href="#Degradado_sin_nombre_63"/><linearGradient id="Degradado_sin_nombre_79-3" x1="1191.6" y1="54.59" x2="1191.6" y2="17.27" gradientTransform="translate(1285.29) rotate(-180) scale(1 -1)" xlink:href="#Degradado_sin_nombre_79"/><linearGradient id="Degradado_sin_nombre_79-4" x1="1131.49" y1="528.91" x2="1131.49" y2="491.6" gradientTransform="translate(1224.54 520.65) rotate(-132.81) scale(1 -1)" xlink:href="#Degradado_sin_nombre_79"/></defs><path class="cls-7" d="M23.14,51.23c9.79,2.78,15.47,12.97,12.7,22.76-.7,2.48-1.88,4.69-3.41,6.57"/><path class="cls-6" d="M22.98,51.03c4.24,9.25.19,20.19-9.06,24.43-2.34,1.07-4.79,1.62-7.21,1.68"/><circle class="cls-9" cx="47.48" cy="11.49" r="6.53"/><path class="cls-8" d="M22.89,50.86c-6.36-7.94-5.08-19.54,2.87-25.9,2.01-1.61,4.26-2.73,6.59-3.38"/><path class="cls-1" d="M46.94,49.64c-10.15-.73-17.78-9.56-17.05-19.71.19-2.57.89-4.98,2-7.13"/><path class="cls-5" d="M96.15,50.93c-9.79,2.78-15.47,12.97-12.7,22.76.7,2.48,1.88,4.69,3.41,6.57"/><path class="cls-4" d="M96.32,50.73c-4.24,9.25-.19,20.19,9.06,24.43,2.34,1.07,4.79,1.62,7.21,1.68"/><circle class="cls-9" cx="71.81" cy="11.19" r="6.53"/><path class="cls-2" d="M96.4,50.57c6.36-7.94,5.08-19.54-2.87-25.9-2.01-1.61-4.26-2.73-6.59-3.38"/><path class="cls-3" d="M72.35,49.35c10.15-.73,17.78-9.56,17.05-19.71-.19-2.57-.89-4.98-2-7.13"/></svg>