<?xml version="1.0" encoding="UTF-8"?><svg id="Capa_1" xmlns="http://www.w3.org/2000/svg" xmlns:xlink="http://www.w3.org/1999/xlink" viewBox="0 0 339.01 285.2"><defs><style>.cls-1{stroke:#c97835;}.cls-1,.cls-2,.cls-3{fill:none;stroke-miterlimit:10;stroke-width:3px;}.cls-4{fill:url(#Degradado_sin_nombre_37-3);}.cls-5{fill:url(#Degradado_sin_nombre_37-6);}.cls-6{fill:url(#Degradado_sin_nombre_37-2);}.cls-7{fill:url(#Degradado_sin_nombre_37-4);}.cls-8{fill:url(#Degradado_sin_nombre_37-7);}.cls-9{fill:url(#Degradado_sin_nombre_37-5);}.cls-10{fill:url(#Degradado_sin_nombre_37-8);}.cls-11{fill:url(#Degradado_sin_nombre_23-8);}.cls-12{fill:url(#Degradado_sin_nombre_23-7);}.cls-13{fill:url(#Degradado_sin_nombre_23-6);}.cls-14{fill:url(#Degradado_sin_nombre_23-2);}.cls-15{fill:url(#Degradado_sin_nombre_23-3);}.cls-16{fill:url(#Degradado_sin_nombre_23-4);}.cls-17{fill:url(#Degradado_sin_nombre_23-5);}.cls-18{fill:url(#Degradado_sin_nombre_12-2);}.cls-19{fill:url(#Degradado_sin_nombre_12-7);}.cls-20{fill:url(#Degradado_sin_nombre_12-5);}.cls-21{fill:url(#Degradado_sin_nombre_12-3);}.cls-22{fill:url(#Degradado_sin_nombre_12-6);}.cls-23{fill:url(#Degradado_sin_nombre_12-8);}.cls-24{fill:url(#Degradado_sin_nombre_12-4);}.cls-2{stroke:#d5d1d1;}.cls-3{stroke:#d9bf6e;}.cls-25{fill:url(#Degradado_sin_nombre_37);}.cls-26{fill:url(#Degradado_sin_nombre_12);}.cls-27{fill:url(#Degradado_sin_nombre_23);}</style><linearGradient id="Degradado_sin_nombre_12" x1="30.16" y1="246.74" x2="80.95" y2="246.74" gradientUnits="userSpaceOnUse"><stop offset="0" stop-color="#ac8c51"/><stop offset=".49" stop-color="#f8e886"/><stop offset="1" stop-color="#b69153"/></linearGradient><linearGradient id="Degradado_sin_nombre_12-2" x1="23.85" y1="57.8" x2="45.6" y2="45.25" xlink:href="#Degradado_sin_nombre_12"/><linearGradient id="Degradado_sin_nombre_12-3" x1="28.05" y1="22.08" x2="82.4" y2="22.08" xlink:href="#Degradado_sin_nombre_12"/><linearGradient id="Degradado_sin_nombre_12-4" x1="68.41" y1="41.66" x2="89.36" y2="53.75" xlink:href="#Degradado_sin_nombre_12"/><linearGradient id="Degradado_sin_nombre_12-5" x1="37.05" y1="106.27" x2="74.07" y2="106.27" xlink:href="#Degradado_sin_nombre_12"/><linearGradient id="Degradado_sin_nombre_12-6" x1="23.85" y1="198.27" x2="45.6" y2="185.72" xlink:href="#Degradado_sin_nombre_12"/><linearGradient id="Degradado_sin_nombre_12-7" x1="28.05" y1="162.55" x2="82.4" y2="162.55" xlink:href="#Degradado_sin_nombre_12"/><linearGradient id="Degradado_sin_nombre_12-8" x1="68.41" y1="182.13" x2="89.36" y2="194.22" xlink:href="#Degradado_sin_nombre_12"/><linearGradient id="Degradado_sin_nombre_23" x1="146.63" y1="246.74" x2="197.42" y2="246.74" gradientUnits="userSpaceOnUse"><stop offset="0" stop-color="#afacaf"/><stop offset=".49" stop-color="#e9e5e4"/><stop offset="1" stop-color="#afacaf"/></linearGradient><linearGradient id="Degradado_sin_nombre_23-2" x1="140.32" y1="57.8" x2="162.06" y2="45.25" xlink:href="#Degradado_sin_nombre_23"/><linearGradient id="Degradado_sin_nombre_23-3" x1="144.51" y1="22.08" x2="198.86" y2="22.08" xlink:href="#Degradado_sin_nombre_23"/><linearGradient id="Degradado_sin_nombre_23-4" x1="184.88" y1="41.66" x2="205.82" y2="53.75" xlink:href="#Degradado_sin_nombre_23"/><linearGradient id="Degradado_sin_nombre_23-5" x1="153.51" y1="106.27" x2="190.53" y2="106.27" xlink:href="#Degradado_sin_nombre_23"/><linearGradient id="Degradado_sin_nombre_23-6" x1="140.32" y1="198.27" x2="162.06" y2="185.72" xlink:href="#Degradado_sin_nombre_23"/><linearGradient id="Degradado_sin_nombre_23-7" x1="144.51" y1="162.55" x2="198.86" y2="162.55" xlink:href="#Degradado_sin_nombre_23"/><linearGradient id="Degradado_sin_nombre_23-8" x1="184.88" y1="182.13" x2="205.82" y2="194.22" xlink:href="#Degradado_sin_nombre_23"/><linearGradient id="Degradado_sin_nombre_37" x1="259.51" y1="246.74" x2="310.3" y2="246.74" gradientUnits="userSpaceOnUse"><stop offset="0" stop-color="#b0622b"/><stop offset=".49" stop-color="#d9873b"/><stop offset="1" stop-color="#b0622b"/></linearGradient><linearGradient id="Degradado_sin_nombre_37-2" x1="253.2" y1="57.8" x2="274.94" y2="45.25" xlink:href="#Degradado_sin_nombre_37"/><linearGradient id="Degradado_sin_nombre_37-3" x1="257.39" y1="22.08" x2="311.74" y2="22.08" xlink:href="#Degradado_sin_nombre_37"/><linearGradient id="Degradado_sin_nombre_37-4" x1="297.76" y1="41.66" x2="318.7" y2="53.75" xlink:href="#Degradado_sin_nombre_37"/><linearGradient id="Degradado_sin_nombre_37-5" x1="266.39" y1="106.27" x2="303.41" y2="106.27" xlink:href="#Degradado_sin_nombre_37"/><linearGradient id="Degradado_sin_nombre_37-6" x1="253.2" y1="198.27" x2="274.94" y2="185.72" xlink:href="#Degradado_sin_nombre_37"/><linearGradient id="Degradado_sin_nombre_37-7" x1="257.39" y1="162.55" x2="311.74" y2="162.55" xlink:href="#Degradado_sin_nombre_37"/><linearGradient id="Degradado_sin_nombre_37-8" x1="297.76" y1="182.13" x2="318.7" y2="194.22" xlink:href="#Degradado_sin_nombre_37"/></defs><circle class="cls-26" cx="55.56" cy="246.74" r="25.39"/><path class="cls-18" d="M10.96,35.47l13.38-20.54,39.71,62.27c-2.73-.61-7.07-1.24-12.33-.53-5.35.72-9.42,2.53-11.9,3.87-9.62-15.02-19.23-30.04-28.85-45.07Z"/><polygon class="cls-21" points="28.05 12.96 40.11 31.21 70.95 31.21 82.4 12.96 28.05 12.96"/><polygon class="cls-24" points="57.86 59.93 71.16 80.53 99.88 35.53 86.69 14.93 57.86 59.93"/><circle class="cls-20" cx="55.56" cy="106.27" r="18.51"/><circle class="cls-3" cx="55.56" cy="106.27" r="25.39"/><path class="cls-22" d="M10.96,175.93l13.38-20.54,39.71,62.27c-2.73-.61-7.07-1.24-12.33-.53-5.35.72-9.42,2.53-11.9,3.87-9.62-15.02-19.23-30.04-28.85-45.07Z"/><polygon class="cls-19" points="28.05 153.42 40.11 171.68 70.95 171.68 82.4 153.42 28.05 153.42"/><polygon class="cls-23" points="57.86 200.4 71.16 221 99.88 176 86.69 155.39 57.86 200.4"/><circle class="cls-27" cx="172.02" cy="246.74" r="25.39"/><path class="cls-14" d="M127.42,35.47l13.38-20.54,39.71,62.27c-2.73-.61-7.07-1.24-12.33-.53-5.35.72-9.42,2.53-11.9,3.87-9.62-15.02-19.23-30.04-28.85-45.07Z"/><polygon class="cls-15" points="144.51 12.96 156.58 31.21 187.42 31.21 198.86 12.96 144.51 12.96"/><polygon class="cls-16" points="174.33 59.93 187.63 80.53 216.34 35.53 203.16 14.93 174.33 59.93"/><circle class="cls-17" cx="172.02" cy="106.27" r="18.51"/><circle class="cls-2" cx="172.02" cy="106.27" r="25.39"/><path class="cls-13" d="M127.42,175.93l13.38-20.54,39.71,62.27c-2.73-.61-7.07-1.24-12.33-.53-5.35.72-9.42,2.53-11.9,3.87-9.62-15.02-19.23-30.04-28.85-45.07Z"/><polygon class="cls-12" points="144.51 153.42 156.58 171.68 187.42 171.68 198.86 153.42 144.51 153.42"/><polygon class="cls-11" points="174.33 200.4 187.63 221 216.34 176 203.16 155.39 174.33 200.4"/><circle class="cls-25" cx="284.9" cy="246.74" r="25.39"/><path class="cls-6" d="M240.3,35.47l13.38-20.54,39.71,62.27c-2.73-.61-7.07-1.24-12.33-.53-5.35.72-9.42,2.53-11.9,3.87-9.62-15.02-19.23-30.04-28.85-45.07Z"/><polygon class="cls-4" points="257.39 12.96 269.46 31.21 300.29 31.21 311.74 12.96 257.39 12.96"/><polygon class="cls-7" points="287.21 59.93 300.51 80.53 329.22 35.53 316.04 14.93 287.21 59.93"/><circle class="cls-9" cx="284.9" cy="106.27" r="18.51"/><circle class="cls-1" cx="284.9" cy="106.27" r="25.39"/><path class="cls-5" d="M240.3,175.93l13.38-20.54,39.71,62.27c-2.73-.61-7.07-1.24-12.33-.53-5.35.72-9.42,2.53-11.9,3.87-9.62-15.02-19.23-30.04-28.85-45.07Z"/><polygon class="cls-8" points="257.39 153.42 269.46 171.68 300.29 171.68 311.74 153.42 257.39 153.42"/><polygon class="cls-10" points="287.21 200.4 300.51 221 329.22 176 316.04 155.39 287.21 200.4"/></svg>