<?xml version="1.0" encoding="UTF-8"?><svg id="Capa_1" xmlns="http://www.w3.org/2000/svg" xmlns:xlink="http://www.w3.org/1999/xlink" viewBox="0 0 142.66 99.02"><defs><style>.cls-1{stroke:url(#Degradado_sin_nombre_11-3);}.cls-1,.cls-2,.cls-3,.cls-4{stroke-width:8.04px;}.cls-1,.cls-2,.cls-3,.cls-4,.cls-5{fill:none;stroke-linecap:round;stroke-linejoin:round;}.cls-2{stroke:url(#Degradado_sin_nombre_11-2);}.cls-3{stroke:url(#Degradado_sin_nombre_11);}.cls-4{stroke:url(#Degradado_sin_nombre_18);}.cls-5{stroke:#aaf23d;stroke-width:6.42px;}</style><linearGradient id="Degradado_sin_nombre_11" x1="2.92" y1="81.15" x2="47.81" y2="81.15" gradientUnits="userSpaceOnUse"><stop offset="0" stop-color="#3b8fd9"/><stop offset="1" stop-color="#1ad9d9"/></linearGradient><linearGradient id="Degradado_sin_nombre_18" x1="16.49" y1="35.71" x2="75.14" y2="35.71" gradientUnits="userSpaceOnUse"><stop offset="0" stop-color="#1ad9d9"/><stop offset="1" stop-color="#aaf23d"/></linearGradient><linearGradient id="Degradado_sin_nombre_11-2" x1="48.67" x2="93.57" xlink:href="#Degradado_sin_nombre_11"/><linearGradient id="Degradado_sin_nombre_11-3" x1="94.42" x2="139.32" xlink:href="#Degradado_sin_nombre_11"/></defs><path class="cls-3" d="M43.79,71.94c0,10.18-8.25,18.43-18.43,18.43s-18.43-8.25-18.43-18.43"/><path class="cls-4" d="M20.51,63.98c10.18,0,18.43-8.25,18.43-18.43s-8.25-18.43-18.43-18.43h50.61L51.43,7.44"/><path class="cls-2" d="M89.54,71.94c0,10.18-8.25,18.43-18.43,18.43s-18.43-8.25-18.43-18.43"/><path class="cls-1" d="M135.3,71.94c0,10.18-8.25,18.43-18.43,18.43s-18.43-8.25-18.43-18.43"/><circle class="cls-5" cx="86.56" cy="26.36" r="6.53"/></svg>