<?xml version="1.0" encoding="UTF-8"?><svg id="Capa_1" xmlns="http://www.w3.org/2000/svg" xmlns:xlink="http://www.w3.org/1999/xlink" viewBox="0 0 83.06 87.26"><defs><style>.cls-1{stroke:url(#Degradado_sin_nombre_40-2);}.cls-1,.cls-2,.cls-3,.cls-4{stroke-width:8.04px;}.cls-1,.cls-2,.cls-3,.cls-4,.cls-5{fill:none;stroke-linecap:round;stroke-linejoin:round;}.cls-2{stroke:url(#Degradado_sin_nombre_40);}.cls-3{stroke:url(#Degradado_sin_nombre_44);}.cls-4{stroke:url(#Degradado_sin_nombre_46);}.cls-5{stroke:#aaf23d;stroke-width:6.42px;}</style><linearGradient id="Degradado_sin_nombre_44" x1="24.4" y1="64.89" x2="63.78" y2="64.89" gradientUnits="userSpaceOnUse"><stop offset="0" stop-color="#1ad9d9"/><stop offset=".12" stop-color="#21dad0"/><stop offset=".31" stop-color="#35ddba"/><stop offset=".54" stop-color="#56e397"/><stop offset=".81" stop-color="#84eb65"/><stop offset="1" stop-color="#aaf23d"/></linearGradient><linearGradient id="Degradado_sin_nombre_40" x1="28.97" y1="23.21" x2="56.57" y2="23.21" gradientUnits="userSpaceOnUse"><stop offset="0" stop-color="#aaf23d"/><stop offset="1" stop-color="#aaf23d"/></linearGradient><linearGradient id="Degradado_sin_nombre_40-2" x1="50.73" y1="34.21" x2="78.33" y2="34.21" xlink:href="#Degradado_sin_nombre_40"/><linearGradient id="Degradado_sin_nombre_46" x1="4.09" y1="49.23" x2="61.88" y2="49.23" gradientUnits="userSpaceOnUse"><stop offset="0" stop-color="#5f1bbf"/><stop offset=".06" stop-color="#5b23c0"/><stop offset=".14" stop-color="#533ac3"/><stop offset=".25" stop-color="#4560c8"/><stop offset=".38" stop-color="#3294cf"/><stop offset=".52" stop-color="#1bd6d8"/><stop offset=".53" stop-color="#1ad9d9"/><stop offset="1" stop-color="#aaf23d"/></linearGradient></defs><path class="cls-3" d="M28.42,54.39c7.26-7.13,18.92-7.03,26.06.23,7.13,7.26,7.03,18.92-.23,26.06"/><path class="cls-2" d="M32.99,16.66c4.53-4.45,11.81-4.39,16.26.14s4.39,11.81-.14,16.26"/><path class="cls-1" d="M74.31,40.77c-4.53,4.45-11.81,4.39-16.26-.14s-4.39-11.81.14-16.26"/><line class="cls-4" x1="8.11" y1="74.11" x2="57.86" y2="24.36"/><circle class="cls-5" cx="69.09" cy="12.79" r="6.53"/></svg>