<?xml version="1.0" encoding="UTF-8"?>
<svg id="ilustracion" xmlns="http://www.w3.org/2000/svg" xmlns:xlink="http://www.w3.org/1999/xlink" viewBox="0 0 610.37 482.9">
  <defs>
    <style>
      .cls-1 {
        fill: url(#Degradado_sin_nombre_99);
      }

      .cls-2 {
        fill: #5f1bc0;
      }

      .cls-3 {
        fill: #3b8fd8;
      }
    </style>
    <linearGradient id="Degradado_sin_nombre_99" data-name="Degradado sin nombre 99" x1="270.34" y1="151.88" x2="340.03" y2="151.88" gradientUnits="userSpaceOnUse">
      <stop offset=".05" stop-color="#38e900"/>
      <stop offset=".63" stop-color="#abf23e"/>
    </linearGradient>
  </defs>
  <path class="cls-2" d="M273.04,220.24v41.92c0,.76.22,1.51.65,2.17l18.81,29.02-.04,101.71h18.57l.04-101.71,18.75-29.69c.46-.73.68-1.57.61-2.42l-3.13-41.3c-.17-2.27-2.28-4.03-4.83-4.03h-44.59c-2.67,0-4.84,1.93-4.84,4.32Z"/>
  <rect class="cls-3" x="270.34" y="226.19" width="62.79" height="10.27" rx="5.14" ry="5.14"/>
  <rect class="cls-3" x="270.34" y="249.46" width="62.79" height="10.27" rx="5.14" ry="5.14"/>
  <path class="cls-1" d="M275.73,215.92c-5.31-9.22-8.84-14.49,0-20.28,8.84-5.79-14.74-17.38,0-16.86s9.43-.03,17.69-.02c8.25.02-7.08.54,0-11.57,7.08-12.11,10.61-11.59,10.61-11.59,0,0-10.61,14.75-2.95,13.7,7.66-1.05,12.38-.53,7.66-8.43-4.72-7.9-25.94-13.7-8.84-32.13,17.1-18.44,25.94-35.29,17.1-35.29s7.66-12.64,8.84,0c.85,9.11.47,27.8.2,37.52-.1,3.56-1.8,6.95-4.75,9.35-4.43,3.61-9.84,9.86-4.88,16.34,7.66,10.01,16.51,11.06,16.51,11.06,0,0,7.66,0,7.08-8.43l-.59-8.43.62,32.66-14.77,13.17s-14.15,17.38,2.36,8.95c16.51-8.43-1.18,10.27-1.18,10.27h-50.7Z"/>
</svg>