<?xml version="1.0" encoding="UTF-8"?><svg id="Capa_1" xmlns="http://www.w3.org/2000/svg" xmlns:xlink="http://www.w3.org/1999/xlink" viewBox="0 0 83.06 87.26"><defs><style>.cls-1{stroke:url(#Degradado_sin_nombre_79-2);}.cls-1,.cls-2,.cls-3,.cls-4,.cls-5,.cls-6{fill:none;stroke-linecap:round;stroke-linejoin:round;}.cls-1,.cls-2,.cls-4,.cls-5{stroke-width:8.04px;}.cls-2{stroke:url(#Degradado_sin_nombre_63-2);}.cls-7{fill:#5f1bbf;}.cls-3{stroke-width:2px;}.cls-3,.cls-6{stroke:#aaf23d;}.cls-4{stroke:url(#Degradado_sin_nombre_63);}.cls-5{stroke:url(#Degradado_sin_nombre_79);}.cls-6{stroke-width:6.42px;}</style><linearGradient id="Degradado_sin_nombre_63" x1="31.67" y1="48.77" x2="31.67" y2="86.15" gradientUnits="userSpaceOnUse"><stop offset=".21" stop-color="#5f1bbf"/><stop offset=".98" stop-color="#1ad9d9"/></linearGradient><linearGradient id="Degradado_sin_nombre_63-2" x1="30.52" y1="65.65" x2="4.52" y2="65.65" xlink:href="#Degradado_sin_nombre_63"/><linearGradient id="Degradado_sin_nombre_79" x1="27.43" y1="56.45" x2="27.43" y2="19.13" gradientUnits="userSpaceOnUse"><stop offset=".09" stop-color="#5f1bbf"/><stop offset=".21" stop-color="#4c4ec6"/><stop offset=".51" stop-color="#1dcfd7"/><stop offset=".53" stop-color="#1ad9d9"/><stop offset=".59" stop-color="#23dace"/><stop offset=".68" stop-color="#3cdeb3"/><stop offset=".81" stop-color="#64e587"/><stop offset=".97" stop-color="#9cef4b"/><stop offset="1" stop-color="#aaf23d"/></linearGradient><linearGradient id="Degradado_sin_nombre_79-2" x1="773.97" y1="-384.18" x2="773.97" y2="-421.49" gradientTransform="translate(272.74 875.74) rotate(-77.5)" xlink:href="#Degradado_sin_nombre_79"/></defs><path class="cls-4" d="M24.97,52.8c9.79,2.78,15.47,12.97,12.7,22.76-.7,2.48-1.88,4.69-3.41,6.57"/><path class="cls-2" d="M24.81,52.6c4.24,9.25.19,20.19-9.06,24.43-2.34,1.07-4.79,1.62-7.21,1.68"/><circle class="cls-6" cx="49.31" cy="13.06" r="6.53"/><path class="cls-5" d="M24.73,52.43c-6.36-7.94-5.08-19.54,2.87-25.9,2.01-1.61,4.26-2.73,6.59-3.38"/><path class="cls-1" d="M60.72,38.73c-9.13,4.49-20.17.73-24.66-8.41-1.14-2.31-1.74-4.75-1.87-7.16"/><ellipse class="cls-3" cx="73.05" cy="28.51" rx="8.14" ry="6.18" transform="translate(11.84 77.52) rotate(-60)"/><circle class="cls-7" cx="70.41" cy="46.29" r="2.64"/></svg>